<svg width="24" height="24" viewBox="0 0 24 24" fill="none" xmlns="http://www.w3.org/2000/svg">
<path d="M12.0153 2C10.6208 2 9.29151 2.28884 8.08306 2.80824C7.73501 2.35656 7.19 2.06517 6.57561 2.06517C5.52422 2.06517 4.67072 2.91735 4.67072 3.96879C4.67072 4.32424 4.76958 4.65706 4.93914 4.94182C3.12537 6.75632 2 9.25909 2 12.0153C2 17.529 6.50159 22 12.0153 22C17.529 21.9999 22 17.529 22 12.0153C22 6.50147 17.529 2 12.0153 2ZM12.0153 2.82155C17.0993 2.82155 21.2077 6.93111 21.2077 12.0152C21.2077 17.0993 17.0993 21.2076 12.0153 21.2076C6.93124 21.2076 2.79229 17.0993 2.79229 12.0152C2.79229 9.48127 3.82071 7.1897 5.4816 5.52805C5.79098 5.74555 6.1686 5.87236 6.57561 5.87236C7.627 5.87236 8.47923 5.02013 8.47923 3.96874C8.47923 3.82186 8.46285 3.67931 8.43137 3.54199C9.53355 3.07811 10.7453 2.82155 12.0153 2.82155ZM12.01 5.02549C8.12615 5.02549 4.95382 8.19783 4.95382 12.0817C4.95382 15.9655 8.1262 19.1179 12.01 19.1179C13.5039 19.1179 14.8902 18.6514 16.0299 17.8563C16.3332 18.0363 16.6871 18.1395 17.0654 18.1395C18.1883 18.1395 19.0992 17.2298 19.0992 16.107C19.0992 15.564 18.8863 15.0705 18.5396 14.7058C18.8662 13.8947 19.0461 13.0092 19.0461 12.0817C19.0461 8.19787 15.8937 5.02549 12.01 5.02549ZM12.01 5.83909C15.4641 5.83909 18.2538 8.62752 18.2538 12.0817C18.2538 12.8403 18.1189 13.5673 17.8724 14.2392C17.6252 14.1323 17.3518 14.073 17.0654 14.073C15.9425 14.073 15.0329 14.984 15.0329 16.1068C15.0329 16.5573 15.1798 16.973 15.4277 17.31C14.4465 17.9516 13.2726 18.3242 12.01 18.3242C8.5558 18.3242 5.74738 15.5358 5.74738 12.0816C5.74738 8.62747 8.5558 5.83909 12.01 5.83909ZM11.9647 6.67392C11.6473 8.03474 11.0388 9.31609 10.1396 10.2153C9.24029 11.1146 8.06664 11.6154 6.70582 11.9328C8.06664 12.2503 9.348 12.8575 10.2472 13.7567C11.1465 14.656 11.6473 15.8311 11.9647 17.1917C12.2822 15.8311 12.7817 14.656 13.6809 13.7567C14.5802 12.8575 15.8616 12.2503 17.2223 11.9329C15.851 11.6169 14.6931 11.12 13.7885 10.2154C12.8841 9.31086 12.2807 8.04533 11.9648 6.674L11.9647 6.67392ZM11.9687 10.3563C12.8407 10.3563 13.548 11.0635 13.548 11.9355C13.548 12.8074 12.8407 13.5147 11.9688 13.5147C11.0969 13.5147 10.3895 12.8074 10.3895 11.9355C10.3895 11.0634 11.0969 10.3562 11.9688 10.3562L11.9687 10.3563Z" fill="black"/>
</svg>
